<?xml version="1.0" encoding="UTF-8" standalone="no"?>
<!DOCTYPE svg PUBLIC "-//W3C//DTD SVG 1.1//EN" "http://www.w3.org/Graphics/SVG/1.1/DTD/svg11.dtd">
<svg width="50" height="29" viewBox="0 0 453 260" version="1.1" xmlns="http://www.w3.org/2000/svg" xmlns:xlink="http://www.w3.org/1999/xlink" style="fill-rule:evenodd;clip-rule:evenodd;stroke-linejoin:round;stroke-miterlimit:2;">
    <g transform="matrix(1,0,0,1,-1760,-153)">
        <g id="cutted" transform="matrix(0.537428,0,0,0.435154,1760.3,153.941)">
            <rect x="0" y="0" width="841.89" height="595.276" style="fill:none;"/>
            <g transform="matrix(7.44231,0,0,9.19147,286.214,574.646)">
                <g id="Logo-ranna">
                    <path d="M0,-60.875L17.035,-46.581L-36.982,-1.255C-37.554,-0.775 -36.979,0.128 -36.302,-0.187L70.129,-49.817C76.329,-52.708 74.268,-62.003 67.427,-62.003L0.411,-62.003C-0.186,-62.003 -0.457,-61.258 0,-60.875M38.18,-28.838L50.178,-18.771C51.967,-17.269 51.592,-14.417 49.475,-13.43L18.846,0.852C18.254,1.128 17.678,0.442 18.053,-0.093L28.48,-14.985L17.243,-19.075L38.18,-28.838Z" style="fill:rgb(0,172,215);fill-rule:nonzero;"/>
                </g>
            </g>
        </g>
    </g>
</svg>
