<?xml version="1.0" encoding="UTF-8" standalone="no"?>
<!DOCTYPE svg PUBLIC "-//W3C//DTD SVG 1.1//EN" "http://www.w3.org/Graphics/SVG/1.1/DTD/svg11.dtd">
<svg width="150" height="35" viewBox="0 0 505 118" version="1.1" style="fill-rule:evenodd;clip-rule:evenodd;stroke-linejoin:round;stroke-miterlimit:2;">
    <g transform="matrix(1,0,0,1,-1760,-879)">
        <g id="focused" transform="matrix(0.598399,0,0,0.195421,1760.3,879.699)">
            <rect x="0" y="0" width="841.89" height="595.276" style="fill:none;"/>
            <g id="Logo-ranna" transform="matrix(1.67113,0,0,5.11715,-282.507,-804.239)">
                <g transform="matrix(1.77623,0,0,1.77623,650.158,194.442)">
                    <path d="M0,22.776C1.292,22.776 2.437,22.746 3.434,22.688C4.432,22.629 5.263,22.521 5.929,22.365L5.929,13.266C5.537,13.071 4.901,12.905 4.021,12.767C3.141,12.631 2.073,12.562 0.822,12.562C0,12.562 -0.871,12.621 -1.79,12.738C-2.71,12.856 -3.552,13.1 -4.314,13.472C-5.078,13.844 -5.714,14.353 -6.223,14.999C-6.731,15.643 -6.985,16.495 -6.985,17.551C-6.985,19.509 -6.359,20.868 -5.106,21.631C-3.855,22.394 -2.152,22.776 0,22.776M-0.47,-4.578C1.722,-4.578 3.571,-4.294 5.077,-3.727C6.583,-3.16 7.797,-2.357 8.717,-1.321C9.636,-0.284 10.292,0.95 10.684,2.378C11.074,3.806 11.271,5.381 11.271,7.103L11.271,25.639C11.271,25.952 11.052,26.217 10.743,26.268C10.347,26.334 9.867,26.412 9.305,26.504C8.462,26.64 7.514,26.768 6.457,26.885C5.401,27.003 4.256,27.109 3.022,27.208C1.79,27.305 0.567,27.354 -0.646,27.354C-2.368,27.354 -3.953,27.178 -5.4,26.826C-6.849,26.474 -8.101,25.916 -9.156,25.153C-10.214,24.39 -11.036,23.383 -11.622,22.13C-12.209,20.878 -12.503,19.372 -12.503,17.61C-12.503,15.928 -12.161,14.48 -11.476,13.266C-10.791,12.054 -9.861,11.075 -8.688,10.331C-7.513,9.588 -6.145,9.04 -4.579,8.688C-3.014,8.336 -1.37,8.16 0.352,8.16C0.9,8.16 1.468,8.189 2.055,8.248C2.642,8.306 3.199,8.386 3.728,8.483C4.256,8.581 4.716,8.669 5.107,8.747C5.498,8.825 5.771,8.884 5.929,8.923L5.929,7.396C5.929,6.497 5.831,5.607 5.636,4.726C5.439,3.844 5.087,3.063 4.579,2.378C4.07,1.693 3.376,1.145 2.494,0.734C1.614,0.323 0.47,0.118 -0.938,0.118C-2.739,0.118 -4.314,0.245 -5.664,0.499C-6.604,0.677 -7.379,0.859 -7.987,1.046C-8.362,1.161 -8.741,0.914 -8.797,0.526L-9.261,-2.724C-9.305,-3.031 -9.128,-3.321 -8.835,-3.422C-8.122,-3.667 -7.114,-3.906 -5.812,-4.138C-4.168,-4.432 -2.387,-4.578 -0.47,-4.578M-42.767,-2.43C-42.767,-2.726 -42.575,-2.983 -42.288,-3.051C-41.101,-3.329 -39.598,-3.624 -37.777,-3.932C-35.704,-4.285 -33.316,-4.461 -30.616,-4.461C-28.19,-4.461 -26.176,-4.118 -24.57,-3.434C-22.966,-2.748 -21.685,-1.79 -20.726,-0.558C-19.767,0.675 -19.093,2.152 -18.7,3.874C-18.31,5.596 -18.113,7.494 -18.113,9.568L-18.113,26.07C-18.113,26.422 -18.399,26.709 -18.752,26.709L-22.934,26.709C-23.287,26.709 -23.572,26.422 -23.572,26.07L-23.572,10.742C-23.572,8.864 -23.7,7.26 -23.954,5.929C-24.209,4.599 -24.629,3.522 -25.216,2.701C-25.803,1.879 -26.586,1.282 -27.564,0.91C-28.543,0.539 -29.756,0.352 -31.203,0.352C-31.79,0.352 -32.397,0.373 -33.022,0.411C-33.649,0.451 -34.246,0.499 -34.813,0.557C-35.381,0.616 -35.89,0.686 -36.34,0.763C-36.79,0.842 -37.112,0.901 -37.309,0.939L-37.309,26.07C-37.309,26.422 -37.595,26.709 -37.947,26.709L-42.128,26.709C-42.481,26.709 -42.767,26.422 -42.767,26.07L-42.767,-2.43ZM-75.351,-2.43C-75.351,-2.726 -75.159,-2.983 -74.871,-3.051C-73.684,-3.329 -72.181,-3.624 -70.36,-3.932C-68.287,-4.285 -65.899,-4.461 -63.199,-4.461C-60.773,-4.461 -58.759,-4.118 -57.153,-3.434C-55.549,-2.748 -54.268,-1.79 -53.309,-0.558C-52.351,0.675 -51.675,2.152 -51.283,3.874C-50.893,5.596 -50.696,7.494 -50.696,9.568L-50.696,26.07C-50.696,26.422 -50.982,26.709 -51.335,26.709L-55.517,26.709C-55.87,26.709 -56.155,26.422 -56.155,26.07L-56.155,10.742C-56.155,8.864 -56.283,7.26 -56.537,5.929C-56.792,4.599 -57.212,3.522 -57.799,2.701C-58.386,1.879 -59.169,1.282 -60.147,0.91C-61.126,0.539 -62.339,0.352 -63.786,0.352C-64.374,0.352 -64.98,0.373 -65.606,0.411C-66.232,0.451 -66.829,0.499 -67.396,0.557C-67.965,0.616 -68.473,0.686 -68.923,0.763C-69.373,0.842 -69.695,0.901 -69.892,0.939L-69.892,26.07C-69.892,26.422 -70.178,26.709 -70.53,26.709L-74.712,26.709C-75.064,26.709 -75.351,26.422 -75.351,26.07L-75.351,-2.43ZM-94.58,22.776C-93.288,22.776 -92.144,22.746 -91.146,22.688C-90.148,22.629 -89.317,22.521 -88.651,22.365L-88.651,13.266C-89.043,13.071 -89.679,12.905 -90.559,12.767C-91.439,12.631 -92.506,12.562 -93.758,12.562C-94.58,12.562 -95.451,12.621 -96.37,12.738C-97.29,12.856 -98.131,13.1 -98.894,13.472C-99.657,13.844 -100.294,14.353 -100.802,14.999C-101.312,15.643 -101.565,16.495 -101.565,17.551C-101.565,19.509 -100.939,20.868 -99.687,21.631C-98.435,22.394 -96.732,22.776 -94.58,22.776M-95.05,-4.578C-92.858,-4.578 -91.01,-4.294 -89.502,-3.727C-87.996,-3.16 -86.783,-2.357 -85.862,-1.321C-84.943,-0.284 -84.288,0.95 -83.896,2.378C-83.506,3.806 -83.31,5.381 -83.31,7.103L-83.31,25.639C-83.31,25.952 -83.528,26.217 -83.837,26.268C-84.233,26.334 -84.713,26.412 -85.276,26.504C-86.118,26.64 -87.066,26.768 -88.123,26.885C-89.18,27.003 -90.324,27.109 -91.557,27.208C-92.789,27.305 -94.013,27.354 -95.226,27.354C-96.948,27.354 -98.532,27.178 -99.98,26.826C-101.429,26.474 -102.681,25.916 -103.737,25.153C-104.793,24.39 -105.615,23.383 -106.202,22.13C-106.789,20.878 -107.083,19.372 -107.083,17.61C-107.083,15.928 -106.74,14.48 -106.056,13.266C-105.371,12.054 -104.441,11.075 -103.268,10.331C-102.094,9.588 -100.724,9.04 -99.158,8.688C-97.594,8.336 -95.95,8.16 -94.228,8.16C-93.68,8.16 -93.112,8.189 -92.525,8.248C-91.938,8.306 -91.381,8.386 -90.853,8.483C-90.324,8.581 -89.864,8.669 -89.473,8.747C-89.082,8.825 -88.809,8.884 -88.651,8.923L-88.651,7.396C-88.651,6.497 -88.749,5.607 -88.944,4.726C-89.141,3.844 -89.493,3.063 -90.001,2.378C-90.511,1.693 -91.205,1.145 -92.085,0.734C-92.966,0.323 -94.11,0.118 -95.52,0.118C-97.319,0.118 -98.894,0.245 -100.244,0.499C-101.185,0.677 -101.959,0.859 -102.567,1.046C-102.942,1.161 -103.321,0.914 -103.377,0.526L-103.841,-2.724C-103.885,-3.031 -103.708,-3.321 -103.415,-3.422C-102.702,-3.666 -101.694,-3.906 -100.392,-4.138C-98.748,-4.432 -96.968,-4.578 -95.05,-4.578M-115.111,-4.461C-114.643,-4.461 -114.104,-4.432 -113.498,-4.373C-112.892,-4.314 -112.294,-4.235 -111.707,-4.138C-111.304,-4.071 -110.288,-3.869 -109.618,-3.724C-109.276,-3.651 -109.059,-3.319 -109.127,-2.976L-109.809,0.477C-109.88,0.839 -110.243,1.07 -110.6,0.973C-110.994,0.865 -111.49,0.746 -112.089,0.616C-113.427,0.328 -115.392,0.38 -117.619,0.502C-119.188,0.607 -120.488,0.947 -120.923,1.057L-120.923,26.07C-120.923,26.422 -121.209,26.709 -121.562,26.709L-125.743,26.709C-126.096,26.709 -126.382,26.422 -126.382,26.07L-126.382,-2.067C-126.382,-2.34 -126.218,-2.584 -125.96,-2.673C-124.746,-3.086 -123.283,-3.477 -121.568,-3.845C-119.652,-4.255 -117.499,-4.461 -115.111,-4.461" style="fill:white;fill-rule:nonzero;"/>
                </g>
                <g transform="matrix(1.77623,0,0,1.77623,237.816,268.923)">
                    <path d="M0,-60.875L17.035,-46.581L-36.982,-1.255C-37.554,-0.775 -36.979,0.128 -36.302,-0.187L70.129,-49.817C76.329,-52.708 74.268,-62.003 67.427,-62.003L0.411,-62.003C-0.186,-62.003 -0.457,-61.258 0,-60.875M38.18,-28.838L50.178,-18.771C51.967,-17.269 51.592,-14.417 49.475,-13.43L18.846,0.852C18.254,1.128 17.678,0.442 18.053,-0.093L28.48,-14.985L17.243,-19.075L38.18,-28.838Z" style="fill:rgb(0,172,215);fill-rule:nonzero;"/>
                </g>
            </g>
        </g>
    </g>
</svg>
